<?xml version="1.0" encoding="utf-8"?>
<svg version="1.1" xmlns:xlink="http://www.w3.org/1999/xlink" width="16px" height="36px" xmlns="http://www.w3.org/2000/svg">
  <g transform="matrix(1 0 0 1 -402 -351 )">
    <path d="M 14.2062780269058 27.4857954545455  C 14.660687593423 27.8096590909091  14.8878923766816 28.1931818181818  14.8878923766816 28.6363636363636  L 14.8878923766816 34.3636363636364  C 14.8878923766816 34.8068181818182  14.660687593423 35.1903409090909  14.2062780269058 35.5142045454545  C 13.7518684603886 35.8380681818182  13.2137518684604 36  12.5919282511211 36  L 3.40807174887892 36  C 2.78624813153961 36  2.24813153961136 35.8380681818182  1.79372197309417 35.5142045454545  C 1.33931240657698 35.1903409090909  1.11210762331839 34.8068181818182  1.11210762331839 34.3636363636364  L 1.11210762331839 28.6363636363636  C 1.11210762331839 28.1931818181818  1.33931240657698 27.8096590909091  1.79372197309417 27.4857954545455  C 2.24813153961136 27.1619318181818  2.78624813153961 27  3.40807174887892 27  L 12.5919282511211 27  C 13.2137518684604 27  13.7518684603886 27.1619318181818  14.2062780269058 27.4857954545455  Z M 15.3363228699552 0.485795454545456  C 15.7787742899851 0.809659090909086  15.9880418535127 1.19318181818182  15.9641255605381 1.63636363636363  L 14.9596412556054 21.2727272727273  C 14.9357249626308 21.7159090909091  14.6905829596413 22.0994318181818  14.2242152466368 22.4232954545455  C 13.7578475336323 22.7471590909091  13.2137518684604 22.9090909090909  12.5919282511211 22.9090909090909  L 3.40807174887892 22.9090909090909  C 2.78624813153961 22.9090909090909  2.24215246636771 22.7471590909091  1.77578475336323 22.4232954545455  C 1.30941704035874 22.0994318181818  1.06427503736921 21.7159090909091  1.04035874439462 21.2727272727273  L 0.0358744394618834 1.63636363636363  C 0.0119581464872948 1.19318181818182  0.221225710014948 0.809659090909086  0.663677130044843 0.485795454545456  C 1.10612855007474 0.161931818181815  1.63826606875934 0  2.26008968609865 0  L 13.7399103139013 0  C 14.3617339312407 0  14.8938714499253 0.161931818181815  15.3363228699552 0.485795454545456  Z " fill-rule="nonzero" fill="#000000" stroke="none" transform="matrix(1 0 0 1 402 351 )" />
  </g>
</svg>