<?xml version="1.0" encoding="utf-8"?>
<svg version="1.1" xmlns:xlink="http://www.w3.org/1999/xlink" width="160px" height="16px" xmlns="http://www.w3.org/2000/svg">
  <defs>
    <mask fill="white" id="clip13">
      <path d="M 0 16  L 0 0  L 27.7124183006536 0  L 32.9411764705882 0  L 36.6013071895425 0  L 40.2614379084967 0  L 41.3071895424837 0  L 60.6535947712418 0  L 160 0  L 160 16  L 126.535947712418 16  L 53.8562091503268 16  L 41.3071895424837 16  L 40.7843137254902 16  L 38.6928104575163 16  L 0 16  Z " fill-rule="evenodd" />
    </mask>
  </defs>
  <g transform="matrix(1 0 0 1 -359 -535 )">
    <path d="M 0 16  L 0 0  L 27.7124183006536 0  L 32.9411764705882 0  L 36.6013071895425 0  L 40.2614379084967 0  L 41.3071895424837 0  L 60.6535947712418 0  L 160 0  L 160 16  L 126.535947712418 16  L 53.8562091503268 16  L 41.3071895424837 16  L 40.7843137254902 16  L 38.6928104575163 16  L 0 16  Z " fill-rule="nonzero" fill="#00bfbf" stroke="none" fill-opacity="0.109803921568627" transform="matrix(1 0 0 1 359 535 )" />
    <path d="M 0 16  L 0 0  L 27.7124183006536 0  L 32.9411764705882 0  L 36.6013071895425 0  L 40.2614379084967 0  L 41.3071895424837 0  L 60.6535947712418 0  L 160 0  L 160 16  L 126.535947712418 16  L 53.8562091503268 16  L 41.3071895424837 16  L 40.7843137254902 16  L 38.6928104575163 16  L 0 16  Z " stroke-width="4" stroke="#797979" fill="none" transform="matrix(1 0 0 1 359 535 )" mask="url(#clip13)" />
  </g>
</svg>